<?xml version="1.0" encoding="utf-8"?>
<!-- Generator: Adobe Illustrator 22.0.0, SVG Export Plug-In . SVG Version: 6.00 Build 0)  -->
<svg version="1.1" xmlns="http://www.w3.org/2000/svg" xmlns:xlink="http://www.w3.org/1999/xlink" x="0px" y="0px"
	 viewBox="0 0 256 256" style="enable-background:new 0 0 256 256;" xml:space="preserve">
<style type="text/css">
	.st0{display:none;}
	.st1{display:inline;}
	.st2{fill:none;stroke:#6B1D1D;stroke-width:0.5;stroke-miterlimit:10;}
	.st3{fill:#3A312A;}
	.st4{fill:#87796F;}
	.st5{fill:#D5DE58;}
	.st6{fill:#695B51;}
	.st7{fill:#FCE8CB;}
	.st8{fill:#F16C7A;}
	.st9{fill:#8AC6DD;}
	.st10{fill:#DECAAD;}
	.st11{fill:#D6DF58;}
	.st12{fill-rule:evenodd;clip-rule:evenodd;fill:#FCE8CB;}
	.st13{fill:#F5978A;}
	.st14{fill:#D7E057;}
	.st15{fill-rule:evenodd;clip-rule:evenodd;fill:#87796F;}
	.st16{fill:#6CA8BF;}
	.st17{fill:#B9C239;}
	.st18{fill:#D34E5C;}
	.st19{fill:#FAE6CA;}
	.st20{fill:#F8E4C8;}
	.st21{fill:#8AC5DC;}
	.st22{fill:#EF6D7A;}
	.st23{fill:#EB6E7A;}
	.st24{fill:#89C4DB;}
	.st25{fill-rule:evenodd;clip-rule:evenodd;fill:#F16C7A;}
	.st26{fill:#F7E3C7;}
	.st27{fill:#F6E2C6;}
	.st28{fill:#ED6E7A;}
	.st29{fill:#8AC3DA;}
	.st30{fill:#D5DC57;}
	.st31{fill-rule:evenodd;clip-rule:evenodd;fill:#D7E057;}
	.st32{fill-rule:evenodd;clip-rule:evenodd;fill:#F8E4C8;}
	.st33{fill:#D4DB56;}
	.st34{fill:#F59689;}
	.st35{fill:#DDC9AC;}
	.st36{fill:#D24E5C;}
	.st37{fill:#6A5C52;}
	.st38{fill:#6CA6BE;}
	.st39{fill:#B8C136;}
	.st40{fill-rule:evenodd;clip-rule:evenodd;fill:#FAE6CA;}
</style>
<g id="Layer_2" class="st0">
	<g class="st1">
		<g>
			<line class="st2" x1="0" y1="4.829" x2="256" y2="4.829"/>
			<line class="st2" x1="0" y1="16.56" x2="256" y2="16.56"/>
			<line class="st2" x1="0" y1="28.29" x2="256" y2="28.29"/>
			<line class="st2" x1="0" y1="40.021" x2="256" y2="40.021"/>
			<line class="st2" x1="0" y1="51.751" x2="256" y2="51.751"/>
			<line class="st2" x1="0" y1="63.482" x2="256" y2="63.482"/>
			<line class="st2" x1="0" y1="75.213" x2="256" y2="75.213"/>
			<line class="st2" x1="0" y1="86.943" x2="256" y2="86.943"/>
			<line class="st2" x1="0" y1="98.674" x2="256" y2="98.674"/>
			<line class="st2" x1="0" y1="110.404" x2="256" y2="110.404"/>
			<line class="st2" x1="0" y1="122.135" x2="256" y2="122.135"/>
			<line class="st2" x1="0" y1="133.865" x2="256" y2="133.865"/>
			<line class="st2" x1="0" y1="145.596" x2="256" y2="145.596"/>
			<line class="st2" x1="0" y1="157.326" x2="256" y2="157.326"/>
			<line class="st2" x1="0" y1="169.057" x2="256" y2="169.057"/>
			<line class="st2" x1="0" y1="180.788" x2="256" y2="180.788"/>
			<line class="st2" x1="0" y1="192.518" x2="256" y2="192.518"/>
			<line class="st2" x1="0" y1="204.249" x2="256" y2="204.249"/>
			<line class="st2" x1="0" y1="215.979" x2="256" y2="215.979"/>
			<line class="st2" x1="0" y1="227.71" x2="256" y2="227.71"/>
			<line class="st2" x1="0" y1="239.44" x2="256" y2="239.44"/>
			<line class="st2" x1="0" y1="251.171" x2="256" y2="251.171"/>
		</g>
		<g>
			<line class="st2" x1="251.171" y1="0" x2="251.171" y2="256"/>
			<line class="st2" x1="239.44" y1="0" x2="239.44" y2="256"/>
			<line class="st2" x1="227.71" y1="0" x2="227.71" y2="256"/>
			<line class="st2" x1="215.979" y1="0" x2="215.979" y2="256"/>
			<line class="st2" x1="204.249" y1="0" x2="204.249" y2="256"/>
			<line class="st2" x1="192.518" y1="0" x2="192.518" y2="256"/>
			<line class="st2" x1="180.787" y1="0" x2="180.787" y2="256"/>
			<line class="st2" x1="169.057" y1="0" x2="169.057" y2="256"/>
			<line class="st2" x1="157.326" y1="0" x2="157.326" y2="256"/>
			<line class="st2" x1="145.596" y1="0" x2="145.596" y2="256"/>
			<line class="st2" x1="133.865" y1="0" x2="133.865" y2="256"/>
			<line class="st2" x1="122.135" y1="0" x2="122.135" y2="256"/>
			<line class="st2" x1="110.404" y1="0" x2="110.404" y2="256"/>
			<line class="st2" x1="98.674" y1="0" x2="98.674" y2="256"/>
			<line class="st2" x1="86.943" y1="0" x2="86.943" y2="256"/>
			<line class="st2" x1="75.212" y1="0" x2="75.212" y2="256"/>
			<line class="st2" x1="63.482" y1="0" x2="63.482" y2="256"/>
			<line class="st2" x1="51.751" y1="0" x2="51.751" y2="256"/>
			<line class="st2" x1="40.021" y1="0" x2="40.021" y2="256"/>
			<line class="st2" x1="28.29" y1="0" x2="28.29" y2="256"/>
			<line class="st2" x1="16.56" y1="0" x2="16.56" y2="256"/>
			<line class="st2" x1="4.829" y1="0" x2="4.829" y2="256"/>
		</g>
	</g>
</g>
<g id="Layer_1">
	<g>
		<path class="st19" d="M16.757,126.295V239.44c35.613-14.751,75.628-14.751,111.241,0V90.375
			c-35.613-14.752-75.628-14.752-111.241,0v22.664V126.295z"/>
		<path class="st3" d="M127.998,240.94c-0.194,0-0.389-0.038-0.574-0.114c-35.497-14.704-74.596-14.704-110.093,0
			c-0.464,0.191-0.992,0.14-1.408-0.139c-0.416-0.278-0.666-0.746-0.666-1.247V126.295c0-0.829,0.671-1.5,1.5-1.5
			c0.829,0,1.5,0.671,1.5,1.5v110.918c34.989-13.889,73.252-13.889,108.241,0V91.381c-34.942-14.198-73.299-14.198-108.241,0v21.658
			c0,0.829-0.671,1.5-1.5,1.5c-0.829,0-1.5-0.671-1.5-1.5V90.375c0-0.607,0.365-1.154,0.926-1.386
			c36.238-15.011,76.151-15.011,112.39,0c0.56,0.232,0.925,0.779,0.925,1.386V239.44c0,0.501-0.25,0.969-0.666,1.247
			C128.581,240.855,128.291,240.94,127.998,240.94z"/>
		<path class="st19" d="M239.243,90.375c-35.613-14.752-75.628-14.752-111.241,0c0,49.689,0,99.377,0,149.065
			c35.613-14.751,75.628-14.751,111.241,0C239.243,189.752,239.243,140.064,239.243,90.375z"/>
		<path class="st3" d="M239.243,240.94c-0.194,0-0.39-0.038-0.574-0.114c-35.495-14.703-74.595-14.704-110.093,0
			c-0.464,0.191-0.991,0.14-1.408-0.139c-0.417-0.278-0.667-0.746-0.667-1.247V90.375c0-0.607,0.365-1.154,0.926-1.386
			c36.241-15.011,76.153-15.01,112.39,0c0.561,0.232,0.926,0.779,0.926,1.386V239.44c0,0.501-0.25,0.969-0.667,1.247
			C239.826,240.855,239.535,240.94,239.243,240.94z M129.502,91.381v145.832c34.989-13.889,73.252-13.888,108.241,0V91.381
			C202.801,77.183,164.444,77.183,129.502,91.381z"/>
		<path class="st3" d="M29.577,212.865c-0.641,0-1.234-0.414-1.433-1.058c-0.245-0.791,0.199-1.631,0.991-1.875
			c28.282-8.728,58.188-8.727,86.484-0.001c0.792,0.244,1.236,1.084,0.992,1.876c-0.244,0.792-1.085,1.237-1.875,0.992
			c-27.718-8.549-57.012-8.548-84.716-0.001C29.873,212.843,29.724,212.865,29.577,212.865z"/>
		<path class="st3" d="M141.409,212.672c-0.643,0-1.237-0.417-1.435-1.064c-0.24-0.793,0.207-1.63,0.999-1.871
			c27.818-8.453,57.241-8.471,85.089-0.056c0.793,0.24,1.242,1.077,1.002,1.87c-0.239,0.794-1.081,1.241-1.869,1.002
			c-27.279-8.244-56.101-8.225-83.349,0.054C141.701,212.651,141.554,212.672,141.409,212.672z"/>
		<path class="st3" d="M115.178,192.155c-0.146,0-0.295-0.021-0.442-0.067c-27.718-8.549-57.012-8.548-84.716,0
			c-0.791,0.244-1.631-0.2-1.876-0.991c-0.245-0.792,0.199-1.631,0.991-1.876c28.282-8.728,58.188-8.727,86.484,0
			c0.792,0.244,1.236,1.084,0.992,1.875C116.413,191.741,115.819,192.155,115.178,192.155z"/>
		<path class="st3" d="M141.409,191.962c-0.643,0-1.237-0.417-1.435-1.064c-0.24-0.793,0.207-1.63,0.999-1.871
			c27.817-8.452,57.24-8.471,85.089-0.056c0.793,0.24,1.242,1.077,1.002,1.87c-0.239,0.794-1.081,1.239-1.869,1.002
			c-27.279-8.243-56.101-8.224-83.349,0.054C141.701,191.941,141.554,191.962,141.409,191.962z"/>
		<path class="st3" d="M115.178,171.446c-0.146,0-0.295-0.021-0.442-0.067c-27.718-8.549-57.012-8.548-84.716-0.001
			c-0.791,0.244-1.631-0.199-1.876-0.991c-0.245-0.791,0.199-1.631,0.991-1.875c28.282-8.728,58.188-8.727,86.484-0.001
			c0.792,0.244,1.236,1.084,0.992,1.876C116.413,171.032,115.819,171.446,115.178,171.446z"/>
		<path class="st3" d="M141.409,171.252c-0.643,0-1.237-0.417-1.435-1.064c-0.24-0.793,0.207-1.63,0.999-1.871
			c27.818-8.453,57.241-8.471,85.089-0.056c0.793,0.24,1.242,1.077,1.002,1.87c-0.239,0.794-1.081,1.24-1.869,1.002
			c-27.279-8.244-56.101-8.225-83.349,0.054C141.701,171.231,141.554,171.252,141.409,171.252z"/>
		<path class="st3" d="M29.577,150.736c-0.641,0-1.234-0.414-1.433-1.058c-0.245-0.792,0.199-1.631,0.991-1.876
			c28.282-8.727,58.188-8.727,86.484,0c0.792,0.244,1.236,1.084,0.992,1.875c-0.244,0.792-1.085,1.237-1.875,0.992
			c-27.718-8.549-57.012-8.548-84.716,0C29.873,150.714,29.724,150.736,29.577,150.736z"/>
		<path class="st3" d="M141.409,150.542c-0.643,0-1.237-0.417-1.435-1.064c-0.24-0.792,0.207-1.63,0.999-1.871
			c27.818-8.452,57.241-8.47,85.089-0.056c0.793,0.24,1.242,1.077,1.002,1.87c-0.239,0.794-1.081,1.239-1.869,1.002
			c-27.279-8.243-56.101-8.224-83.349,0.054C141.701,150.521,141.554,150.542,141.409,150.542z"/>
		<path class="st3" d="M115.178,130.026c-0.146,0-0.295-0.021-0.442-0.067c-27.718-8.549-57.012-8.548-84.716-0.001
			c-0.791,0.244-1.631-0.2-1.876-0.991c-0.245-0.792,0.199-1.631,0.991-1.876c28.282-8.728,58.188-8.727,86.484,0
			c0.792,0.244,1.236,1.084,0.992,1.876C116.413,129.612,115.819,130.026,115.178,130.026z"/>
		<path class="st3" d="M141.409,129.833c-0.643,0-1.237-0.417-1.435-1.064c-0.24-0.793,0.207-1.63,0.999-1.871
			c27.818-8.453,57.241-8.471,85.089-0.056c0.793,0.24,1.242,1.077,1.002,1.87c-0.239,0.794-1.081,1.24-1.869,1.002
			c-27.279-8.244-56.101-8.225-83.349,0.054C141.701,129.812,141.554,129.833,141.409,129.833z"/>
		<path class="st3" d="M115.178,109.317c-0.146,0-0.295-0.021-0.442-0.067c-27.718-8.549-57.012-8.548-84.716-0.001
			c-0.791,0.244-1.631-0.199-1.876-0.991c-0.245-0.791,0.199-1.631,0.991-1.875c28.282-8.728,58.188-8.727,86.484-0.001
			c0.792,0.244,1.236,1.084,0.992,1.876C116.413,108.903,115.819,109.317,115.178,109.317z"/>
		<path class="st3" d="M141.409,109.123c-0.643,0-1.237-0.417-1.435-1.064c-0.24-0.792,0.207-1.63,0.999-1.871
			c27.817-8.452,57.24-8.471,85.089-0.057c0.793,0.24,1.242,1.077,1.002,1.87c-0.239,0.793-1.081,1.239-1.869,1.002
			c-27.279-8.243-56.101-8.224-83.349,0.055C141.701,109.103,141.554,109.123,141.409,109.123z"/>
		<path class="st14" d="M47.911,26.22c0,0,3.408,12.659,13.222,13.246c0,0-13.1,4.525-13.321,14.202c0,0-2.579-13.572-12.925-14.059
			C34.887,39.609,46.937,37.784,47.911,26.22z"/>
		<path class="st3" d="M47.811,55.167c-0.713,0-1.335-0.506-1.472-1.217c-0.024-0.124-2.495-12.417-11.523-12.842
			c-0.77-0.037-1.388-0.651-1.428-1.421c-0.04-0.771,0.511-1.445,1.273-1.561c0.441-0.069,10.894-1.817,11.754-12.033
			c0.061-0.725,0.634-1.301,1.359-1.367c0.737-0.062,1.393,0.399,1.583,1.101c0.032,0.116,3.259,11.626,11.864,12.141
			c0.714,0.043,1.297,0.584,1.396,1.292c0.098,0.708-0.319,1.388-0.994,1.623c-0.121,0.042-12.118,4.311-12.313,12.819
			c-0.018,0.767-0.61,1.396-1.374,1.46C47.895,55.166,47.852,55.167,47.811,55.167z M40.07,39.438
			c3.878,1.969,6.23,5.746,7.587,8.876c2.026-4.021,5.941-6.787,8.949-8.427c-4.134-1.842-6.783-5.651-8.333-8.722
			C46.478,35.525,43,38.033,40.07,39.438z"/>
		<path class="st14" d="M26.212,43.2c0,0,2.411,8.954,9.352,9.369c0,0-9.266,3.201-9.422,10.045c0,0-1.824-9.6-9.142-9.944
			C17,52.671,25.524,51.38,26.212,43.2z"/>
		<path class="st3" d="M26.141,64.115c-0.713,0-1.337-0.507-1.472-1.22c-0.016-0.082-1.704-8.442-7.739-8.726
			c-0.771-0.037-1.388-0.651-1.428-1.421c-0.04-0.771,0.511-1.445,1.273-1.561c0.296-0.047,7.364-1.243,7.942-8.114
			c0.061-0.726,0.635-1.303,1.36-1.368c0.729-0.068,1.392,0.399,1.582,1.101l0,0c0.021,0.079,2.228,7.92,7.994,8.265
			c0.714,0.043,1.299,0.584,1.396,1.293c0.098,0.709-0.32,1.388-0.996,1.622c-0.081,0.028-8.282,2.952-8.413,8.662
			c-0.018,0.767-0.611,1.397-1.376,1.461C26.224,64.114,26.182,64.115,26.141,64.115z M21.622,52.587
			c2.107,1.333,3.523,3.395,4.447,5.28c1.376-2.232,3.515-3.872,5.365-4.972c-2.287-1.27-3.884-3.35-4.941-5.224
			C25.319,49.958,23.478,51.546,21.622,52.587z"/>
		<path class="st14" d="M26.212,16.543c0,0,2.411,8.954,9.352,9.37c0,0-9.266,3.201-9.422,10.045c0,0-1.824-9.6-9.142-9.944
			C17,26.014,25.524,24.722,26.212,16.543z"/>
		<path class="st3" d="M26.141,37.458c-0.713,0-1.337-0.507-1.472-1.22c-0.016-0.082-1.704-8.442-7.739-8.726
			c-0.771-0.037-1.388-0.651-1.428-1.421c-0.04-0.77,0.511-1.445,1.273-1.56c0.296-0.047,7.364-1.243,7.942-8.114
			c0.061-0.726,0.635-1.303,1.36-1.368c0.729-0.062,1.392,0.399,1.582,1.102l0,0c0.021,0.079,2.228,7.92,7.994,8.265
			c0.714,0.043,1.299,0.584,1.396,1.293c0.098,0.709-0.32,1.388-0.996,1.622c-0.081,0.028-8.282,2.952-8.413,8.662
			c-0.018,0.767-0.611,1.397-1.376,1.461C26.224,37.457,26.182,37.458,26.141,37.458z M21.622,25.93
			c2.107,1.332,3.523,3.394,4.447,5.28c1.376-2.232,3.515-3.872,5.365-4.972c-2.287-1.27-3.884-3.35-4.941-5.224
			C25.319,23.3,23.478,24.889,21.622,25.93z"/>
		<path class="st22" d="M234.998,36.669l3.235-6.4c2.336-4.622,0.483-10.263-4.139-12.599l0,0
			c-4.622-2.336-10.263-0.483-12.599,4.139l-3.235,6.4L234.998,36.669z"/>
		<path class="st3" d="M234.998,38.169c-0.232,0-0.465-0.054-0.677-0.161l-16.738-8.46c-0.355-0.18-0.624-0.493-0.748-0.871
			c-0.124-0.378-0.094-0.79,0.086-1.145l3.235-6.4c1.311-2.593,3.553-4.52,6.312-5.427c2.76-0.908,5.709-0.684,8.302,0.626
			c5.353,2.706,7.506,9.262,4.801,14.615l-3.234,6.4c-0.18,0.355-0.493,0.624-0.871,0.749
			C235.313,38.145,235.155,38.169,234.998,38.169z M220.275,27.547l14.061,7.107l2.558-5.062c1.959-3.877,0.399-8.625-3.477-10.583
			c-1.877-0.949-4.013-1.11-6.012-0.454c-1.999,0.657-3.622,2.053-4.571,3.931L220.275,27.547z"/>
		<polygon class="st21" points="224.9,56.487 234.998,36.669 218.26,28.209 141.878,178.109 158.615,186.569 218.841,68.378 		"/>
		<path class="st3" d="M158.614,188.07c-0.228,0-0.459-0.052-0.676-0.162l-16.737-8.46c-0.355-0.18-0.625-0.494-0.749-0.873
			c-0.124-0.379-0.092-0.791,0.089-1.147l76.382-149.9c0.376-0.736,1.275-1.031,2.014-0.658l16.738,8.46
			c0.355,0.18,0.625,0.494,0.749,0.873c0.124,0.379,0.092,0.791-0.089,1.147l-10.099,19.817c-0.377,0.739-1.282,1.031-2.018,0.655
			c-0.738-0.376-1.032-1.279-0.656-2.018l9.416-18.477l-14.061-7.106l-75.02,147.227l14.061,7.106l59.546-116.859
			c0.377-0.739,1.281-1.031,2.018-0.655c0.738,0.376,1.032,1.279,0.656,2.018l-60.226,118.191
			C159.686,187.77,159.16,188.07,158.614,188.07z"/>
		<polygon class="st22" points="179.944,103.405 141.878,178.109 158.615,186.569 196.681,111.865 		"/>
		<path class="st3" d="M158.614,188.07c-0.228,0-0.459-0.052-0.676-0.162l-16.737-8.46c-0.355-0.18-0.625-0.494-0.749-0.873
			c-0.124-0.379-0.092-0.791,0.089-1.147l38.065-74.704c0.376-0.737,1.275-1.03,2.014-0.658l16.738,8.46
			c0.355,0.18,0.625,0.494,0.749,0.873c0.124,0.379,0.092,0.791-0.089,1.147l-38.066,74.705
			C159.686,187.77,159.16,188.07,158.614,188.07z M143.897,177.45l14.061,7.106l36.704-72.032l-14.061-7.106L143.897,177.45z"/>
		<polygon class="st11" points="158.615,186.569 141.878,178.109 139.298,204 		"/>
		<path class="st3" d="M139.299,205.5c-0.23,0-0.462-0.053-0.677-0.161c-0.553-0.28-0.877-0.871-0.816-1.488l2.579-25.891
			c0.049-0.492,0.337-0.928,0.771-1.166c0.434-0.238,0.957-0.247,1.398-0.024l16.737,8.46c0.441,0.223,0.744,0.649,0.81,1.14
			c0.066,0.49-0.114,0.981-0.481,1.313l-19.316,17.431C140.021,205.368,139.662,205.5,139.299,205.5z M143.153,180.435l-1.977,19.85
			l14.809-13.364L143.153,180.435z"/>
		<path class="st22" d="M190.413,55.743C190.413,34.07,162.47,16.5,128,16.5c-34.47,0-62.413,17.57-62.413,39.243
			c0,17.494,18.209,32.308,43.357,37.373l1.51,20.998c0.134,1.864,2.364,2.746,3.737,1.478l22.754-21.014
			C167.175,91.85,190.413,75.506,190.413,55.743z"/>
		<path class="st3" d="M112.688,117.689c-0.463,0-0.931-0.087-1.382-0.266c-1.345-0.532-2.245-1.758-2.349-3.201l-1.429-19.868
			c-26.035-5.576-43.442-20.998-43.442-38.611C64.087,33.277,92.758,15,128,15c35.242,0,63.913,18.277,63.913,40.743
			c0,20.06-23.316,37.319-54.323,40.282l-22.381,20.669C114.503,117.347,113.606,117.689,112.688,117.689z M128,18
			c-33.587,0-60.913,16.932-60.913,37.743c0,16.396,16.94,30.824,42.153,35.902c0.661,0.133,1.151,0.691,1.2,1.363l1.51,20.999
			c0.03,0.413,0.332,0.576,0.46,0.626c0.128,0.052,0.46,0.139,0.764-0.143l22.754-21.014c0.243-0.224,0.554-0.362,0.883-0.392
			c29.703-2.681,52.103-18.734,52.103-37.341C188.913,34.932,161.588,18,128,18z"/>
		<path class="st4" d="M96.394,64.743h-9.482l-1.317,4.462h-8.528l10.159-27.028h9.11l10.156,27.028h-8.746L96.394,64.743z
			 M94.662,58.898l-2.983-9.716l-2.952,9.716H94.662z"/>
		<path class="st3" d="M106.493,70.704h-8.746c-0.661,0-1.244-0.433-1.436-1.065l-1.03-3.396h-7.248l-0.999,3.386
			c-0.188,0.638-0.774,1.075-1.439,1.075h-8.528c-0.492,0-0.953-0.241-1.233-0.646c-0.28-0.405-0.344-0.921-0.171-1.382
			l10.159-27.028c0.22-0.585,0.779-0.972,1.404-0.972h9.11c0.625,0,1.185,0.387,1.404,0.972l10.156,27.028
			c0.173,0.461,0.109,0.977-0.171,1.382C107.446,70.463,106.985,70.704,106.493,70.704z M98.859,67.704h5.467l-9.029-24.028h-7.033
			l-9.031,24.028h5.241l0.999-3.386c0.188-0.638,0.773-1.075,1.438-1.075h9.481c0.661,0,1.244,0.433,1.436,1.065L98.859,67.704z
			 M94.662,60.398h-5.935c-0.475,0-0.922-0.225-1.205-0.607c-0.283-0.381-0.368-0.875-0.23-1.329l2.952-9.716
			c0.191-0.631,0.773-1.063,1.433-1.064c0.001,0,0.002,0,0.002,0c0.659,0,1.241,0.43,1.434,1.06l2.983,9.716
			c0.14,0.455,0.055,0.949-0.228,1.332C95.585,60.172,95.138,60.398,94.662,60.398z M90.75,57.398h1.882l-0.946-3.081L90.75,57.398z
			"/>
		<path class="st4" d="M116.717,42.176h15.634c2.606,0,4.606,0.646,6.001,1.936c1.395,1.29,2.093,2.888,2.093,4.793
			c0,1.598-0.498,2.968-1.494,4.111c-0.663,0.762-1.635,1.364-2.912,1.806c1.942,0.468,3.371,1.27,4.286,2.406
			c0.916,1.137,1.374,2.566,1.374,4.286c0,1.401-0.326,2.661-0.977,3.779c-0.652,1.119-1.543,2.003-2.673,2.655
			c-0.701,0.406-1.758,0.7-3.171,0.885c-1.881,0.246-3.129,0.369-3.742,0.369h-14.417V42.176z M125.142,52.777h3.632
			c1.303,0,2.209-0.224,2.72-0.673c0.51-0.448,0.765-1.097,0.765-1.945c0-0.787-0.255-1.401-0.765-1.844
			c-0.51-0.442-1.398-0.664-2.664-0.664h-3.688V52.777z M125.142,63.397h4.258c1.438,0,2.452-0.255,3.042-0.765
			c0.591-0.51,0.885-1.195,0.885-2.056c0-0.799-0.292-1.441-0.876-1.927c-0.584-0.485-1.607-0.728-3.07-0.728h-4.24V63.397z"/>
		<path class="st3" d="M131.134,70.704h-14.417c-0.829,0-1.5-0.671-1.5-1.5V42.176c0-0.829,0.671-1.5,1.5-1.5h15.634
			c2.982,0,5.344,0.786,7.02,2.335c1.708,1.58,2.574,3.563,2.574,5.895c0,1.962-0.627,3.677-1.863,5.097
			c-0.177,0.204-0.371,0.398-0.58,0.583c0.794,0.474,1.459,1.042,1.992,1.704c1.131,1.405,1.705,3.163,1.705,5.227
			c0,1.662-0.397,3.187-1.18,4.534c-0.783,1.343-1.867,2.419-3.222,3.2c-0.881,0.51-2.1,0.861-3.727,1.073
			C133.108,70.579,131.82,70.704,131.134,70.704z M118.217,67.704h12.917c0.376,0,1.297-0.062,3.549-0.356
			c1.506-0.196,2.253-0.487,2.614-0.696c0.91-0.525,1.606-1.215,2.129-2.112c0.52-0.893,0.772-1.882,0.772-3.023
			c0-1.381-0.341-2.475-1.042-3.346c-0.698-0.867-1.865-1.502-3.47-1.889c-0.647-0.156-1.114-0.721-1.146-1.386
			c-0.032-0.666,0.378-1.272,1.008-1.49c1.021-0.354,1.785-0.815,2.271-1.374c0.758-0.87,1.126-1.892,1.126-3.126
			c0-1.482-0.527-2.689-1.611-3.692c-1.103-1.02-2.779-1.537-4.982-1.537h-14.134V67.704z M129.4,64.896h-4.258
			c-0.829,0-1.5-0.671-1.5-1.5v-5.476c0-0.829,0.671-1.5,1.5-1.5h4.239c1.841,0,3.159,0.352,4.029,1.075
			c0.927,0.771,1.417,1.836,1.417,3.08c0,1.294-0.486,2.398-1.406,3.191C132.546,64.526,131.229,64.896,129.4,64.896z
			 M126.643,61.896h2.758c1.484,0,1.952-0.305,2.06-0.399c0.184-0.158,0.368-0.389,0.368-0.922c0-0.435-0.161-0.628-0.335-0.772
			c-0.076-0.064-0.539-0.382-2.111-0.382h-2.739V61.896z M128.774,54.277h-3.631c-0.829,0-1.5-0.671-1.5-1.5v-5.125
			c0-0.829,0.671-1.5,1.5-1.5h3.687c1.653,0,2.846,0.337,3.646,1.03c0.586,0.51,1.282,1.438,1.282,2.978
			c0,1.611-0.692,2.559-1.273,3.07C131.684,53.935,130.47,54.277,128.774,54.277z M126.643,51.277h2.131
			c1.374,0,1.715-0.288,1.73-0.3c0.062-0.055,0.255-0.225,0.255-0.818c0-0.496-0.168-0.642-0.249-0.712
			c-0.033-0.028-0.379-0.295-1.68-0.295h-2.187V51.277z"/>
		<path class="st4" d="M171.613,58.142l7.319,2.213c-0.492,2.053-1.266,3.767-2.323,5.144c-1.057,1.377-2.369,2.415-3.936,3.116
			c-1.567,0.701-3.561,1.051-5.982,1.051c-2.938,0-5.337-0.427-7.2-1.281c-1.862-0.854-3.469-2.355-4.821-4.504
			c-1.352-2.15-2.028-4.901-2.028-8.255c0-4.471,1.189-7.907,3.567-10.308c2.379-2.402,5.743-3.602,10.094-3.602
			c3.404,0,6.081,0.689,8.03,2.065c1.948,1.377,3.395,3.491,4.341,6.342l-7.374,1.641c-0.259-0.823-0.529-1.426-0.811-1.807
			c-0.468-0.639-1.04-1.131-1.715-1.475c-0.676-0.344-1.432-0.516-2.268-0.516c-1.893,0-3.343,0.761-4.351,2.283
			c-0.763,1.129-1.144,2.903-1.144,5.322c0,2.995,0.455,5.049,1.365,6.16c0.91,1.111,2.188,1.667,3.835,1.667
			c1.598,0,2.805-0.448,3.623-1.346C170.651,61.154,171.245,59.851,171.613,58.142z"/>
		<path class="st3" d="M166.691,71.165c-3.141,0-5.773-0.477-7.825-1.417c-2.122-0.973-3.961-2.678-5.466-5.069
			c-1.498-2.383-2.258-5.428-2.258-9.053c0-4.859,1.347-8.682,4.002-11.364c2.659-2.685,6.414-4.046,11.159-4.046
			c3.705,0,6.697,0.787,8.895,2.34c2.207,1.559,3.855,3.946,4.9,7.094c0.134,0.403,0.09,0.843-0.119,1.212
			c-0.209,0.369-0.564,0.632-0.978,0.725l-7.374,1.641c-0.757,0.163-1.525-0.271-1.757-1.015c-0.282-0.897-0.504-1.253-0.587-1.364
			c-0.335-0.457-0.723-0.792-1.189-1.031c-0.467-0.237-0.985-0.353-1.587-0.353c-1.387,0-2.372,0.512-3.1,1.612
			c-0.413,0.611-0.895,1.875-0.895,4.493c0,3.442,0.643,4.741,1.026,5.209c0.623,0.762,1.473,1.117,2.673,1.117
			c1.167,0,1.99-0.28,2.516-0.856c0.631-0.693,1.109-1.775,1.421-3.215c0.088-0.409,0.344-0.763,0.705-0.976
			c0.359-0.213,0.795-0.266,1.194-0.144l7.319,2.212c0.761,0.23,1.21,1.013,1.025,1.786c-0.54,2.25-1.412,4.171-2.593,5.708
			c-1.205,1.57-2.724,2.772-4.513,3.571C171.533,70.768,169.314,71.165,166.691,71.165z M166.304,43.215
			c-3.971,0-6.924,1.033-9.028,3.158c-2.079,2.099-3.133,5.212-3.133,9.252c0,3.051,0.605,5.56,1.797,7.456
			c1.188,1.888,2.594,3.214,4.177,3.939c1.657,0.759,3.869,1.145,6.575,1.145c2.198,0,4.005-0.31,5.37-0.92
			c1.349-0.603,2.446-1.472,3.358-2.66c0.686-0.892,1.243-1.972,1.665-3.222l-4.436-1.34c-0.422,1.237-0.993,2.255-1.705,3.038
			c-1.111,1.219-2.703,1.836-4.733,1.836c-2.11,0-3.791-0.746-4.995-2.216c-1.146-1.401-1.704-3.727-1.704-7.11
			c0-2.75,0.458-4.765,1.401-6.161c1.272-1.922,3.209-2.944,5.594-2.944c1.07,0,2.062,0.229,2.947,0.679
			c0.885,0.45,1.64,1.098,2.246,1.926c0.19,0.258,0.371,0.572,0.543,0.946l4.399-0.979c-0.803-1.755-1.867-3.108-3.175-4.032
			C171.786,43.817,169.376,43.215,166.304,43.215z"/>
		<path class="st10" d="M212.69,83.75l-1.75,3.43c1.398,0.426,2.791,0.877,4.181,1.351c4.563,1.558,7.619,5.865,7.619,10.686v5.963
			c1.11,0.3,2.22,0.62,3.32,0.95c0.8,0.24,1.24,1.08,1,1.87c-0.23,0.79-1.08,1.24-1.86,1c-0.82-0.25-1.64-0.49-2.46-0.71v17.59
			c1.11,0.31,2.22,0.63,3.32,0.96c0.8,0.24,1.24,1.08,1,1.87c-0.23,0.8-1.08,1.24-1.86,1c-0.82-0.25-1.64-0.49-2.46-0.72v17.6
			c1.11,0.31,2.22,0.63,3.32,0.96c0.8,0.24,1.24,1.08,1,1.87c-0.23,0.79-1.08,1.24-1.86,1c-0.82-0.25-1.64-0.49-2.46-0.72v17.6
			c1.11,0.31,2.22,0.63,3.32,0.96c0.8,0.24,1.24,1.08,1,1.87c-0.23,0.79-1.08,1.24-1.86,1c-0.82-0.25-1.64-0.49-2.46-0.71v17.59
			c1.11,0.31,2.22,0.63,3.32,0.96c0.8,0.24,1.24,1.08,1,1.87c-0.23,0.79-1.08,1.24-1.86,1c-0.82-0.25-1.64-0.49-2.46-0.71v17.59
			c1.11,0.31,2.22,0.63,3.32,0.96c0.8,0.24,1.24,1.08,1,1.87c-0.23,0.79-1.08,1.24-1.86,1c-0.82-0.25-1.64-0.49-2.46-0.72v20.33
			c5.05,1.41,10.06,3.09,15,5.05V91.38C229.55,88.05,221.17,85.51,212.69,83.75z"/>
	</g>
</g>
</svg>
